<?xml version="1.0" encoding="UTF-8"?>
<svg id="Layer_1" xmlns="http://www.w3.org/2000/svg" version="1.1" viewBox="0 0 512 512">
  <!-- Generator: Adobe Illustrator 29.0.1, SVG Export Plug-In . SVG Version: 2.1.0 Build 192)  -->
  <defs>
    <style>
      .st0 {
        stroke-width: 4.05px;
      }

      .st0, .st1, .st2, .st3 {
        fill: none;
        stroke: #000;
        stroke-miterlimit: 10;
      }

      .st1 {
        stroke-width: 3.94px;
      }

      .st2 {
        stroke-width: 4.05px;
      }

      .st3 {
        stroke-width: 3.98px;
      }
    </style>
  </defs>
  <line class="st1" x1="19.34" y1="180.07" x2="21.66" y2="331.93"/>
  <line class="st1" x1="4.2" y1="198.01" x2="18.87" y2="181.41"/>
  <path class="st3" d="M306.59,198.99c-8.35,3.71-76.72,34.47-95.73,62.96-2.2,3.31-6.36,9.71-6.79,18.49-.77,16,11.42,28.25,15.92,32.77,29.31,29.46,92.84,11.27,96.11,10.3"/>
  <path class="st3" d="M231.23,221.93"/>
  <path class="st3" d="M210.63,180.74"/>
  <path class="st3" d="M238.33,236.5c-9.23-18.59-18.46-37.18-27.7-55.77"/>
  <circle class="st0" cx="113.05" cy="256.39" r="73.57"/>
  <line class="st1" x1="341.43" y1="192.93" x2="341.43" y2="331.92"/>
  <circle class="st2" cx="434.23" cy="256.39" r="73.57"/>
  <line class="st1" x1="317.05" y1="181.78" x2="367.14" y2="181.78"/>
  <line class="st1" x1="341.46" y1="192.93" x2="341.46" y2="182.82"/>
</svg>