<?xml version="1.0" encoding="UTF-8"?>
<svg id="Layer_1" xmlns="http://www.w3.org/2000/svg" version="1.1" viewBox="0 0 560 288">
  <!-- Generator: Adobe Illustrator 29.0.1, SVG Export Plug-In . SVG Version: 2.1.0 Build 192)  -->
  <defs>
    <style>
      .st0 {
        stroke-width: 4.36px;
      }

      .st0, .st1, .st2 {
        fill: none;
        stroke: #000;
        stroke-miterlimit: 10;
      }

      .st1 {
        stroke-width: 4.24px;
      }

      .st2 {
        stroke-width: 4.28px;
      }
    </style>
  </defs>
  <line class="st1" x1="25.21" y1="62.25" x2="27.71" y2="225.75"/>
  <line class="st1" x1="8.92" y1="81.57" x2="24.7" y2="63.7"/>
  <path class="st2" d="M334.46,82.62c-8.98,4-82.6,37.12-103.06,67.78-2.36,3.57-6.84,10.46-7.31,19.9-.83,17.22,12.29,30.42,17.14,35.28,31.55,31.71,99.96,12.13,103.47,11.08"/>
  <path class="st2" d="M253.34,107.32"/>
  <path class="st2" d="M231.15,62.98"/>
  <path class="st2" d="M260.99,123.01c-9.93-20.02-19.88-40.03-29.81-60.05"/>
  <circle class="st0" cx="126.11" cy="144.42" r="79.21"/>
  <line class="st1" x1="371.98" y1="76.1" x2="371.98" y2="225.73"/>
  <circle class="st0" cx="471.88" cy="144.42" r="79.21"/>
  <line class="st1" x1="345.72" y1="64.09" x2="399.66" y2="64.09"/>
  <line class="st1" x1="372" y1="76.1" x2="372" y2="65.22"/>
</svg>